<svg width="72" height="72" viewBox="0 0 72 72" fill="none" xmlns="http://www.w3.org/2000/svg">
<path d="M70.6016 35.8008C70.6016 31.2307 69.7014 26.7053 67.9525 22.4831C66.2036 18.2609 63.6402 14.4245 60.4087 11.1929C57.1771 7.96136 53.3407 5.39796 49.1185 3.64905C44.8963 1.90015 40.3709 1 35.8008 1C31.2307 1 26.7053 1.90015 22.4831 3.64905C18.2609 5.39796 14.4245 7.96136 11.1929 11.1929C7.96136 14.4245 5.39796 18.2609 3.64905 22.4831C1.90015 26.7053 1 31.2307 1 35.8008C1 45.0305 4.6665 53.8823 11.1929 60.4087C17.7193 66.9351 26.571 70.6016 35.8008 70.6016C45.0305 70.6016 53.8823 66.9351 60.4087 60.4087C66.9351 53.8823 70.6016 45.0305 70.6016 35.8008ZM6.80013 35.8008C6.80013 28.1093 9.85555 20.7329 15.2942 15.2942C20.7329 9.85555 28.1093 6.80013 35.8008 6.80013C43.4922 6.80013 50.8687 9.85555 56.3074 15.2942C61.746 20.7329 64.8014 28.1093 64.8014 35.8008C64.8014 43.4922 61.746 50.8687 56.3074 56.3074C50.8687 61.746 43.4922 64.8014 35.8008 64.8014C28.1093 64.8014 20.7329 61.746 15.2942 56.3074C9.85555 50.8687 6.80013 43.4922 6.80013 35.8008ZM30.0007 28.5506C30.0007 29.1219 29.8881 29.6876 29.6695 30.2153C29.4509 30.7431 29.1305 31.2227 28.7265 31.6266C28.3226 32.0306 27.843 32.351 27.3153 32.5696C26.7875 32.7882 26.2218 32.9007 25.6506 32.9007C25.0793 32.9007 24.5136 32.7882 23.9858 32.5696C23.4581 32.351 22.9785 32.0306 22.5746 31.6266C22.1706 31.2227 21.8502 30.7431 21.6316 30.2153C21.413 29.6876 21.3005 29.1219 21.3005 28.5506C21.3005 27.3969 21.7588 26.2904 22.5746 25.4746C23.3904 24.6588 24.4968 24.2005 25.6506 24.2005C26.8043 24.2005 27.9107 24.6588 28.7265 25.4746C29.5423 26.2904 30.0007 27.3969 30.0007 28.5506ZM50.3011 28.5506C50.3011 29.7043 49.8428 30.8108 49.027 31.6266C48.2112 32.4424 47.1047 32.9007 45.951 32.9007C44.7973 32.9007 43.6908 32.4424 42.875 31.6266C42.0592 30.8108 41.6009 29.7043 41.6009 28.5506C41.6009 27.3969 42.0592 26.2904 42.875 25.4746C43.6908 24.6588 44.7973 24.2005 45.951 24.2005C47.1047 24.2005 48.2112 24.6588 49.027 25.4746C49.8428 26.2904 50.3011 27.3969 50.3011 28.5506ZM24.9661 52.1688C30.3313 45.8118 41.2645 45.8118 46.6354 52.1688C46.8751 52.4771 47.1746 52.7338 47.5159 52.9236C47.8572 53.1133 48.2333 53.2322 48.6217 53.2731C49.01 53.3139 49.4026 53.2759 49.776 53.1614C50.1493 53.0468 50.4956 52.858 50.7942 52.6063C51.0928 52.3546 51.3375 52.0452 51.5136 51.6967C51.6897 51.3481 51.7935 50.9676 51.819 50.5779C51.8444 50.1882 51.7909 49.7974 51.6617 49.4289C51.5324 49.0604 51.33 48.7219 51.0667 48.4335C43.3816 39.3273 28.2142 39.3273 20.5348 48.4335C20.2715 48.7219 20.0692 49.0604 19.9399 49.4289C19.8106 49.7974 19.7571 50.1882 19.7826 50.5779C19.808 50.9676 19.9119 51.3481 20.088 51.6967C20.2641 52.0452 20.5088 52.3546 20.8074 52.6063C21.106 52.858 21.4523 53.0468 21.8256 53.1614C22.1989 53.2759 22.5916 53.3139 22.9799 53.2731C23.3683 53.2322 23.7444 53.1133 24.0857 52.9236C24.427 52.7338 24.7265 52.4771 24.9661 52.1688Z" fill="#DF1125"/>
</svg>
