<svg width="24" height="24" viewBox="0 0 24 24" fill="none" xmlns="http://www.w3.org/2000/svg">
<path fill-rule="evenodd" clip-rule="evenodd" d="M17.9993 7.09104C18.3005 6.7898 18.3005 6.3014 17.9993 6.00017C17.6981 5.69893 17.2097 5.69893 16.9084 6.00017L11.9996 10.909L7.09082 6.00018C6.78958 5.69894 6.30118 5.69894 5.99994 6.00018C5.69871 6.30141 5.69871 6.78982 5.99994 7.09105L10.9087 11.9999L5.99971 16.9089C5.69847 17.2101 5.69847 17.6985 5.99971 17.9998C6.30095 18.301 6.78935 18.301 7.09058 17.9998L11.9996 13.0907L16.9087 17.9998C17.2099 18.301 17.6983 18.301 17.9995 17.9998C18.3008 17.6985 18.3008 17.2101 17.9995 16.9089L13.0905 11.9999L17.9993 7.09104Z" fill="white"/>
</svg>
