<svg width="24" height="24" viewBox="0 0 24 24" fill="none" xmlns="http://www.w3.org/2000/svg">
<g clip-path="url(#clip0_924_10097)">
<path fill-rule="evenodd" clip-rule="evenodd" d="M14.9457 13.5674C16.9328 11.3431 16.9981 7.93498 14.9862 5.62979C12.8073 3.13322 9.01701 2.87573 6.52044 5.05467C4.02387 7.23362 3.76638 11.0239 5.94533 13.5204C7.95727 15.8257 11.343 16.2219 13.8156 14.5537L18.2457 19.6297C18.3949 19.8006 18.7688 19.7183 19.0809 19.446C19.3929 19.1736 19.525 18.8143 19.3758 18.6434L14.9457 13.5674ZM13.6677 6.78049C15.2111 8.54889 15.0287 11.2337 13.2603 12.7771C11.4919 14.3205 8.80718 14.1381 7.26376 12.3697C5.72034 10.6013 5.90273 7.91654 7.67113 6.37312C9.43954 4.8297 12.1243 5.01208 13.6677 6.78049Z" fill="#FF4961" fill-opacity="0.8"/>
</g>
<defs>
<clipPath id="clip0_924_10097">
<rect width="24" height="24" fill="white"/>
</clipPath>
</defs>
</svg>
