<svg width="24" height="24" viewBox="0 0 24 24" fill="none" xmlns="http://www.w3.org/2000/svg">
<g clip-path="url(#clip0_674_11825)">
<path d="M2.39954 21.5999H1.39954V22.5999H2.39954V21.5999ZM3.39954 2.3999V1.3999H1.39954V2.3999H3.39954ZM21.5995 22.5999H22.5995V20.5999H21.5995V22.5999ZM6.49243 13.6929L5.78532 14.4L7.19954 15.8142L7.90664 15.1071L6.49243 13.6929ZM11.3995 10.2L12.1066 9.49292L11.3995 8.78581L10.6924 9.49292L11.3995 10.2ZM14.3995 13.2L13.6924 13.9071L14.3995 14.6142L15.1066 13.9071L14.3995 13.2ZM21.7066 7.30714C22.0972 6.91661 22.0972 6.28345 21.7066 5.89292C21.3161 5.5024 20.683 5.5024 20.2924 5.89292L21.7066 7.30714ZM16.5093 4.9999H15.5093V6.9999H16.5093V4.9999ZM21.6004 5.9999H22.6004V4.9999H21.6004V5.9999ZM20.6004 11.0911V12.0911H22.6004V11.0911H20.6004ZM3.39954 21.5999V2.3999H1.39954V21.5999H3.39954ZM2.39954 22.5999H21.5995V20.5999H2.39954V22.5999ZM7.90664 15.1071L12.1066 10.9071L10.6924 9.49292L6.49243 13.6929L7.90664 15.1071ZM10.6924 10.9071L13.6924 13.9071L15.1066 12.4929L12.1066 9.49292L10.6924 10.9071ZM15.1066 13.9071L21.7066 7.30714L20.2924 5.89292L13.6924 12.4929L15.1066 13.9071ZM16.5093 6.9999H21.6004V4.9999H16.5093V6.9999ZM20.6004 5.9999V11.0911H22.6004V5.9999H20.6004Z" fill="#DFF81E"/>
</g>
<defs>
<clipPath id="clip0_674_11825">
<rect width="24" height="24" fill="white"/>
</clipPath>
</defs>
</svg>
