<svg width="24" height="24" viewBox="0 0 24 24" fill="none" xmlns="http://www.w3.org/2000/svg">
<path fill-rule="evenodd" clip-rule="evenodd" d="M11.4556 5.20954C11.6712 5.46113 11.6421 5.83991 11.3905 6.05556L9.82195 7.40001H12C15.3137 7.40001 18 10.0863 18 13.4C18 16.7137 15.3137 19.4 12 19.4C8.68629 19.4 6 16.7137 6 13.4C6 12.9426 6.05129 12.4964 6.14868 12.0672C6.22201 11.7441 6.54343 11.5416 6.86658 11.6149C7.18974 11.6882 7.39226 12.0096 7.31894 12.3328C7.24118 12.6754 7.2 13.0326 7.2 13.4C7.2 16.051 9.34903 18.2 12 18.2C14.651 18.2 16.8 16.051 16.8 13.4C16.8 10.749 14.651 8.60001 12 8.60001H9.82195L11.3905 9.94446C11.6421 10.1601 11.6712 10.5389 11.4556 10.7905C11.2399 11.0421 10.8611 11.0712 10.6095 10.8556L7.80953 8.45556C7.67654 8.34158 7.6 8.17517 7.6 8.00001C7.6 7.82486 7.67654 7.65845 7.80953 7.54446L10.6095 5.14446C10.8611 4.9288 11.2399 4.95794 11.4556 5.20954Z" fill="#3A4565"/>
</svg>
