<svg width="24" height="24" viewBox="0 0 24 24" fill="none" xmlns="http://www.w3.org/2000/svg">
<path fill-rule="evenodd" clip-rule="evenodd" d="M19.2716 12.7377C19.6732 12.7383 19.9993 12.4132 19.9999 12.0115C20.0005 11.6099 19.6754 11.2838 19.2737 11.2832L12.7284 11.2735L12.738 4.72826C12.7386 4.3266 12.4135 4.00051 12.0118 3.99992C11.6102 3.99932 11.2841 4.32446 11.2835 4.72612L11.2738 11.2714L4.72828 11.2617C4.32662 11.2611 4.00053 11.5863 3.99994 11.9879C3.99934 12.3896 4.32447 12.7157 4.72613 12.7163L11.2717 12.7259L11.262 19.2716C11.2614 19.6732 11.5866 19.9993 11.9882 19.9999C12.3899 20.0005 12.716 19.6754 12.7166 19.2737L12.7262 12.7281L19.2716 12.7377Z" fill="white"/>
</svg>
